<svg width="1440" height="1024" viewBox="0 0 1440 1024" fill="none" xmlns="http://www.w3.org/2000/svg">
<g clip-path="url(#clip0_78_18)">
<rect width="1440" height="1024" fill="white"/>
<path fill-rule="evenodd" clip-rule="evenodd" d="M241 279C241 334.781 195.781 380 140 380C84.2192 380 39 334.781 39 279C39 223.219 84.2192 178 140 178C195.781 178 241 223.219 241 279ZM140 322C163.748 322 183 302.748 183 279C183 255.252 163.748 236 140 236C116.252 236 97 255.252 97 279C97 302.748 116.252 322 140 322Z" fill="#E72C7044"/>
<path fill-rule="evenodd" clip-rule="evenodd" d="M506 766C506 855.47 433.47 928 344 928C254.53 928 182 855.47 182 766C182 676.53 254.53 604 344 604C433.47 604 506 676.53 506 766ZM344 837C383.212 837 415 805.212 415 766C415 726.788 383.212 695 344 695C304.788 695 273 726.788 273 766C273 805.212 304.788 837 344 837Z" fill="#F7F24944"/>
<path fill-rule="evenodd" clip-rule="evenodd" d="M732 279C732 404.369 630.369 506 505 506C379.631 506 278 404.369 278 279C278 153.631 379.631 52 505 52C630.369 52 732 153.631 732 279ZM505 379C560.228 379 605 334.228 605 279C605 223.772 560.228 179 505 179C449.772 179 405 223.772 405 279C405 334.228 449.772 379 505 379Z" fill="#82D1E444"/>
<path fill-rule="evenodd" clip-rule="evenodd" d="M2205 596C2205 989.779 1885.78 1309 1492 1309C1098.22 1309 779 989.779 779 596C779 202.221 1098.22 -117 1492 -117C1885.78 -117 2205 202.221 2205 596ZM1492 909C1664.87 909 1805 768.865 1805 596C1805 423.135 1664.87 283 1492 283C1319.13 283 1179 423.135 1179 596C1179 768.865 1319.13 909 1492 909Z" fill="#E72C7044"/>
</g>
<defs>
<clipPath id="clip0_78_18">
<rect width="1440" height="1024" fill="white"/>
</clipPath>
</defs>
</svg>
