<?xml version="1.0" encoding="utf-8"?>
<!-- Generator: Adobe Illustrator 27.0.1, SVG Export Plug-In . SVG Version: 6.00 Build 0)  -->
<svg version="1.1" id="Layer_1" xmlns="http://www.w3.org/2000/svg" xmlns:xlink="http://www.w3.org/1999/xlink" x="0px" y="0px"
	 viewBox="0 0 842 538" style="enable-background:new 0 0 842 538;" xml:space="preserve">
<style type="text/css">
	.st0{fill:#E72C70;}
</style>
<g transform="translate(0.000000,538.000000) scale(0.100000,-0.100000)">
	<path class="st0" d="M3979,5169c-221-32-450-184-591-392c-148-217-211-524-159-772c26-127,105-289,191-392c133-160,319-278,479-304
		c86-14,124-3,177,50c104,105,298,434,311,528c5,37,3,41-30,62c-121,75-227,267-227,411c0,84,31,137,100,173c50,26,62,28,135,24
		c212-11,357-113,850-597c371-365,504-477,707-599c157-94,350-165,488-177l67-7l6-231c15-575,112-1234,223-1514
		c63-158,145-292,179-292c18,0,232,106,240,119c10,18-21,112-85,250c-97,214-156,426-200,725c-40,277-70,639-70,851v110l93,22
		c108,26,248,93,329,158c168,132,268,354,272,595c1,113,0,116-35,190c-43,89-103,153-179,189c-49,23-67,26-165,26
		c-104,0-114-2-176-33c-79-38-184-144-242-242c-76-131-135-325-164-536l-17-121l-50,13c-66,17-165,59-241,102
		c-214,121-410,312-779,760c-235,285-301,358-431,469C4644,5081,4291,5215,3979,5169z M7135,4017c61-61,65-181,10-294
		c-35-70-111-152-188-203c-62-40-153-77-164-66c-10,9,25,208,53,303C6916,4001,7040,4112,7135,4017z"/>
	<path class="st0" d="M2641,4244c-315-55-585-223-695-433c-67-128-81-196-80-381c0-131,4-184,21-256c48-207,134-366,273-505
		c203-205,470-320,855-370c136-17,487-15,633,5c214,29,339,63,682,186c211,76,428,145,434,139c2-2,16-146,30-319
		c35-406,51-546,87-759c84-502,234-873,437-1079c115-117,256-199,359-209c51-6,52-5,106,46c103,97,204,267,228,379
		c15,73,3,99-48,107c-269,43-452,156-588,360c-133,200-196,418-244,851c-18,159-26,258-46,601l-6,91l28,6c15,3,47,8,71,11l42,7v-241
		c0-285,12-452,46-621c83-416,277-716,551-854c114-57,357-106,527-106h86l20,33c37,59,72,187,77,283l6,91l-199-1
		c-221-1-271,7-393,66c-80,39-218,173-270,261c-86,147-138,350-148,578c-5,132,12,526,24,539c3,3,98,4,211,4c174-2,220-5,287-22
		c77-20,81-21,105-3c43,31,83,106,88,165l4,54l-73,36c-128,62-344,106-521,106h-78v79c0,99-9,125-52,141c-42,16-243,26-251,13
		c-4-6-11-64-18-129c-6-65-11-120-12-121s-39-8-83-16l-81-14l-5,138c-5,120-8,141-27,168c-32,45-84,56-200,43
		c-133-15-135-18-127-157c3-60,9-144,12-186l7-75l-149-33c-866-188-1261-222-1562-135c-111,32-190,75-251,135
		c-109,107-133,229-72,353c41,84,94,127,238,196l106,51l-7,37c-3,20-11,163-17,317c-12,304-14,311-72,341
		C2903,4259,2749,4263,2641,4244z"/>
	<path class="st0" d="M7052,3206c-23-8-49-19-56-25c-32-27-27-537,9-859c54-483,175-883,329-1089c66-88,120-126,169-120
		c67,9,257,135,257,170c0,8-36,55-81,104c-148,161-258,351-309,536c-46,162-76,416-110,911c-12,170-27,325-33,345
		c-12,36-13,36-72,38C7122,3218,7076,3213,7052,3206z"/>
	<path class="st0" d="M995,3049c-112-15-240-56-349-111c-85-44-116-67-197-147c-79-79-103-111-137-181c-160-325-102-726,137-942
		c50-45,161-120,194-131c6-2,5-128-2-317c-6-173-11-439-11-591V353l23-10c62-29,149-37,372-38c266,0,312,9,490,94
		c399,191,652,608,706,1166c15,151,6,438-16,565c-89,496-380,811-837,904C1271,3054,1086,3062,995,3049z M1364,2579
		c214-65,347-266,386-579c37-308-33-616-197-862c-87-131-246-276-397-363l-49-28l7,184c3,101,9,255,12,341l7,158l36,5
		c137,22,246,67,319,132l43,38l-115,283c-63,155-118,287-121,292s-27-4-52-20c-213-135-413-64-413,146c0,145,111,265,272,293
		C1173,2612,1287,2603,1364,2579z"/>
	<path class="st0" d="M7736,2765c-111-42-215-172-257-320c-23-81-17-330,10-430c46-173,136-302,246-355c68-32,210-40,284-15
		c101,33,190,145,225,282c36,140,29,375-16,522c-63,207-193,321-373,328C7801,2779,7762,2775,7736,2765z M7977,2353
		c28-49,45-162,33-223c-18-96-118-134-167-62c-47,70-55,218-16,285c21,35,75,59,108,47C7946,2396,7965,2375,7977,2353z"/>
	<path class="st0" d="M6045,2564c-65-10-152-46-200-82c-61-45-125-138-155-224c-31-87-39-283-16-382c34-144,129-271,244-328
		c66-33,68-33,207-33c121,1,148,4,197,23c74,30,150,99,184,167l26,55l-27,55c-17,36-43,68-72,90c-53,40-79,44-88,14
		c-14-43-85-108-141-129c-113-42-203-12-255,86c-50,92-51,89,49,86c147-6,335,39,402,95c29,24,30,28,30,107c0,189-87,348-211,385
		C6171,2564,6089,2570,6045,2564z M6125,2296c19-8,41-28,50-46l16-31l-37-15c-82-35-234-56-234-33c0,39,73,112,128,129
		C6086,2312,6087,2312,6125,2296z"/>
	<path class="st0" d="M4470,2288c-44-12-70-35-70-61c0-11,16-86,35-166c43-182,61-296,75-481c12-164,7-199-34-218
		c-101-49-140,64-201,588c-36,310-26,280-94,280c-77-1-203-18-214-29c-7-7-4-80,7-203c40-456,110-756,207-878c53-67,112-94,208-94
		c151,1,273,67,325,177c37,79,46,152,46,366c0,271-34,568-76,669C4661,2293,4566,2316,4470,2288z"/>
	<path class="st0" d="M3585,2054c-59-21-114-71-140-125l-22-48l-21,44c-15,31-30,47-48,51c-38,10-223-1-236-14c-7-7,1-71,31-224
		c81-419,93-508,100-738l6-215l40,2c57,2,232,60,239,79c15,39,5,381-14,504c-34,218-24,318,36,340c77,30,111-68,139-398
		c22-265,62-432,138-576c47-90,164-203,258-249c91-45,228-81,272-73c74,14,211,159,223,238l6,35l-75,7c-144,13-259,62-354,150
		c-126,117-152,197-193,601c-31,297-54,423-91,498c-25,50-64,94-101,113C3744,2074,3638,2073,3585,2054z"/>
	<path class="st0" d="M2614,1872c-127-62-231-208-276-388c-30-119-32-392-5-494c42-156,116-257,225-308c49-23,70-27,152-27
		c80,0,102,4,138,23c175,93,285,395,270,741c-8,180-54,299-151,388c-70,65-119,86-212,90C2683,1901,2669,1898,2614,1872z M2844,1440
		c16-27,20-52,20-120c-2-109-17-165-59-207c-39-39-84-44-114-14c-74,74-38,338,50,375C2785,1492,2821,1481,2844,1440z"/>
</g>
</svg>
